<?xml version="1.0" encoding="iso-8859-1"?>
<!-- Uploaded to: SVG Repo, www.svgrepo.com, Generator: SVG Repo Mixer Tools -->
<svg version="1.1" id="Layer_1" xmlns="http://www.w3.org/2000/svg" xmlns:xlink="http://www.w3.org/1999/xlink" 
	 viewBox="0 0 488.8 488.8" xml:space="preserve">
<polygon style="fill:#B4BFBE;" points="476.4,105.6 214.8,109.6 162,4 476.4,4 "/>
<g>
	<path style="fill:#8EA5A4;" d="M464.4,488h-440c-14.131,0-24-8.882-24-21.6v-440C0.4,13.938,10.664,0,24.4,0h440
		c13.736,0,24,13.938,24,26.4v440C488.4,479.118,478.531,488,464.4,488z M24.4,16c-3.813,0-8,5.443-8,10.4v440
		c0,5.054,5.595,5.6,8,5.6h440c2.405,0,8-0.546,8-5.6v-440c0-4.957-4.187-10.4-8-10.4C464.4,16,24.4,16,24.4,16z"/>
	<path style="fill:#8EA5A4;" d="M464.4,488.8h-440c-14.58,0-24-7.223-24-18.399V36h16v434.4c0,1.301,3.664,2.399,8,2.399h440
		c4.337,0,8-1.099,8-2.399V121.6c0-0.074-0.003-0.132-0.007-0.178c-0.587-0.447-2.915-1.422-7.993-1.422H207.305L154.75,7.383
		l14.499-6.766L217.495,104H464.4c22.27,0,24,13.471,24,17.6v348.8C488.4,481.577,478.979,488.8,464.4,488.8z"/>
	<rect x="328.4" y="3" style="fill:#8EA5A4;" width="16" height="114"/>
</g>
</svg>