<svg xmlns="http://www.w3.org/2000/svg" xmlns:xlink="http://www.w3.org/1999/xlink" xml:space="preserve" version="1.1" style="shape-rendering:geometricPrecision;text-rendering:geometricPrecision;image-rendering:optimizeQuality;" viewBox="0 0 254 470" x="0px" y="0px" fill-rule="evenodd" clip-rule="evenodd"><defs><style type="text/css">
   
    .fil0 {fill:black}
   
  </style></defs><g><path class="fil0" d="M127 0c70,0 127,57 127,127 0,62 -32,96 -66,151l-61 98 -61 -98c-34,-55 -66,-89 -66,-151 0,-70 57,-127 127,-127zm0 52c39,0 70,32 70,70 0,39 -31,70 -70,70 -39,0 -70,-31 -70,-70 0,-38 31,-70 70,-70z"/></g><text x="0" y="391" fill="#000000" font-size="5px" font-weight="bold" font-family="'Helvetica Neue', Helvetica, Arial-Unicode, Arial, Sans-serif">Created by SELicon</text><text x="0" y="396" fill="#000000" font-size="5px" font-weight="bold" font-family="'Helvetica Neue', Helvetica, Arial-Unicode, Arial, Sans-serif">from the Noun Project</text></svg>